<?xml version="1.0" standalone="no"?>
<!DOCTYPE svg PUBLIC "-//W3C//DTD SVG 20010904//EN"
 "http://www.w3.org/TR/2001/REC-SVG-20010904/DTD/svg10.dtd">
<svg version="1.0" xmlns="http://www.w3.org/2000/svg"
 width="512.000000pt" height="512.000000pt" viewBox="0 0 512.000000 512.000000"
 preserveAspectRatio="xMidYMid meet">
<metadata>
Created by potrace 1.14, written by Peter Selinger 2001-2017
</metadata>
<g transform="translate(0.000000,512.000000) scale(0.100000,-0.100000)"
fill="#000000" stroke="none">
<path d="M2522 4563 c-13 -3 -43 -23 -67 -47 l-44 -42 -26 19 c-48 36 -137 15
-166 -39 l-12 -23 -41 27 c-57 36 -138 42 -194 13 -61 -31 -110 -106 -108
-163 1 -22 -5 -29 -35 -41 -46 -18 -73 -58 -74 -107 l0 -38 -48 3 c-134 8
-219 -61 -219 -178 0 -25 6 -55 12 -67 6 -12 10 -23 8 -24 -66 -41 -92 -63
-113 -96 -30 -48 -33 -114 -7 -169 l19 -38 -29 -33 c-63 -76 -73 -187 -24
-261 l25 -37 -53 -55 c-111 -115 -168 -271 -105 -283 8 -2 23 -5 34 -7 76 -18
186 -35 229 -36 28 -1 28 -1 11 -27 -12 -18 -16 -41 -13 -79 3 -52 2 -53 -30
-65 -87 -31 -142 -121 -142 -232 0 -61 -3 -69 -25 -84 -41 -27 -74 -106 -71
-172 2 -44 -2 -63 -18 -85 -27 -37 -27 -94 2 -134 21 -29 21 -32 6 -63 -11
-21 -15 -47 -11 -76 4 -36 2 -44 -12 -44 -31 -1 -100 -39 -117 -65 -25 -38
-26 -93 -1 -137 11 -21 25 -38 31 -38 5 0 -5 -14 -23 -32 -88 -86 -104 -216
-36 -297 45 -52 108 -75 212 -77 71 -1 96 -5 108 -18 45 -45 140 -67 209 -48
35 10 37 10 42 -17 9 -43 46 -79 95 -92 39 -11 49 -10 85 9 l41 21 22 -30 c54
-73 162 -106 250 -75 39 13 48 13 72 0 40 -20 106 -18 144 6 l33 20 36 -21
c24 -14 47 -20 68 -17 21 4 51 -4 88 -20 70 -33 186 -37 239 -8 49 26 110 94
123 138 13 44 39 56 73 34 39 -26 98 -21 131 12 l29 27 75 -34 c148 -67 275
-35 349 89 40 67 20 134 -55 181 l-36 22 26 14 c26 14 60 66 50 76 -3 3 5 11
18 17 59 31 97 90 93 145 -3 44 -16 85 -27 85 -5 0 0 13 11 29 31 44 35 80 13
123 l-20 37 32 19 c91 54 84 228 -10 271 -19 8 -24 16 -19 29 9 22 21 74 20
87 -6 72 -51 139 -101 151 -22 6 -24 11 -24 73 0 103 -57 202 -141 245 -15 8
-23 19 -21 32 1 10 4 39 6 63 3 27 9 45 18 47 70 11 93 16 140 34 59 23 80 44
70 68 -8 23 -50 89 -86 134 -21 29 -28 50 -30 88 -1 30 -8 56 -17 65 -14 14
-12 19 22 55 41 43 48 65 38 125 -5 28 -18 50 -47 76 l-39 37 18 29 c39 62 30
138 -22 198 -17 19 -26 35 -21 35 16 0 43 82 45 136 3 116 -104 221 -243 240
-28 4 -50 9 -51 13 -10 74 -33 122 -83 172 -58 58 -162 78 -239 46 l-35 -15
-16 37 c-43 109 -145 159 -274 134z m294 -2340 c5 -17 1 -30 -11 -41 -16 -16
-17 -15 -11 9 4 18 1 31 -9 39 -8 7 -12 16 -10 21 10 15 35 -2 41 -28z"/>
</g>
</svg>
